<svg width="273" height="70" viewBox="0 0 273 70" fill="none" xmlns="http://www.w3.org/2000/svg">
<path d="M11.232 69.932C7.68 69.932 4.92 69.02 2.952 67.196C0.984 65.324 0 62.42 0 58.484C0 55.172 0.648 51.524 1.944 47.54C3.24 43.556 5.352 40.124 8.28 37.244C11.208 34.316 14.928 32.852 19.44 32.852C24.72 32.852 27.36 35.156 27.36 39.764C27.36 42.452 26.592 44.924 25.056 47.18C23.52 49.436 21.48 51.26 18.936 52.652C16.392 53.996 13.68 54.764 10.8 54.956C10.704 56.396 10.656 57.356 10.656 57.836C10.656 60.188 11.064 61.796 11.88 62.66C12.696 63.476 14.016 63.884 15.84 63.884C18.432 63.884 20.64 63.284 22.464 62.084C24.336 60.884 26.376 59.06 28.584 56.612H31.032C25.704 65.492 19.104 69.932 11.232 69.932ZM11.376 51.5C13.152 51.404 14.832 50.78 16.416 49.628C18.048 48.476 19.344 47.012 20.304 45.236C21.312 43.46 21.816 41.588 21.816 39.62C21.816 37.652 21.216 36.668 20.016 36.668C18.288 36.668 16.584 38.18 14.904 41.204C13.272 44.228 12.096 47.66 11.376 51.5Z" fill="white"/>
<path d="M37.2088 69.932C34.4728 69.932 32.1928 68.996 30.3688 67.124C28.5448 65.252 27.6328 62.324 27.6328 58.34C27.6328 54.788 28.3288 51.068 29.7208 47.18C31.1608 43.244 33.2728 39.932 36.0568 37.244C38.8888 34.508 42.2488 33.14 46.1368 33.14C48.1048 33.14 49.5688 33.476 50.5288 34.148C51.4888 34.82 51.9688 35.708 51.9688 36.812V37.316L52.7608 33.5H63.1288L57.9448 57.98C57.7528 58.7 57.6568 59.468 57.6568 60.284C57.6568 62.348 58.6408 63.38 60.6088 63.38C61.9528 63.38 63.1048 62.756 64.0648 61.508C65.0728 60.26 65.8648 58.628 66.4408 56.612H69.4648C67.6888 61.796 65.4808 65.324 62.8408 67.196C60.2488 69.02 57.6328 69.932 54.9928 69.932C52.9768 69.932 51.3448 69.38 50.0968 68.276C48.8968 67.124 48.1768 65.468 47.9368 63.308C46.5448 65.276 44.9848 66.884 43.2568 68.132C41.5768 69.332 39.5608 69.932 37.2088 69.932ZM41.8888 62.948C43.0888 62.948 44.2648 62.396 45.4168 61.292C46.6168 60.14 47.4328 58.58 47.8648 56.612L51.3208 40.34C51.3208 39.716 51.0808 39.116 50.6008 38.54C50.1208 37.916 49.3768 37.604 48.3688 37.604C46.4488 37.604 44.7208 38.732 43.1848 40.988C41.6488 43.196 40.4488 45.884 39.5848 49.052C38.7208 52.172 38.2888 54.932 38.2888 57.332C38.2888 59.732 38.6248 61.268 39.2968 61.94C40.0168 62.612 40.8808 62.948 41.8888 62.948Z" fill="white"/>
<path d="M71.3633 33.5H81.7313L80.7953 37.964C82.4273 36.524 83.8913 35.42 85.1872 34.652C86.5312 33.884 87.9713 33.5 89.5072 33.5C91.0433 33.5 92.2433 34.028 93.1073 35.084C94.0193 36.14 94.4753 37.412 94.4753 38.9C94.4753 40.292 94.0193 41.516 93.1073 42.572C92.1953 43.628 90.9232 44.156 89.2913 44.156C88.2353 44.156 87.5153 43.916 87.1313 43.436C86.7952 42.908 86.5312 42.164 86.3392 41.204C86.1953 40.58 86.0512 40.124 85.9072 39.836C85.7633 39.548 85.4993 39.404 85.1152 39.404C84.1072 39.404 83.2432 39.62 82.5232 40.052C81.8512 40.436 80.9633 41.132 79.8593 42.14L74.0993 69.5H63.7312L71.3633 33.5Z" fill="white"/>
<path d="M100.666 69.932C98.3616 69.932 96.4896 69.212 95.0496 67.772C93.6576 66.332 92.9616 64.172 92.9616 61.292C92.9616 60.092 93.1536 58.532 93.5376 56.612L98.4336 33.5H108.802L103.618 57.98C103.474 58.556 103.402 59.156 103.402 59.78C103.402 61.892 104.122 62.948 105.562 62.948C106.906 62.948 108.058 62.396 109.018 61.292C109.978 60.14 110.746 58.58 111.322 56.612L116.218 33.5H126.586L121.402 57.98C121.162 59.18 121.042 60.044 121.042 60.572C121.042 62.156 121.858 62.948 123.49 62.948C125.698 62.948 127.738 61.556 129.61 58.772C131.53 55.988 133.066 52.676 134.218 48.836C135.37 44.996 135.946 41.684 135.946 38.9C135.85 39.14 135.538 39.332 135.01 39.476C134.482 39.572 134.026 39.62 133.642 39.62C132.826 39.62 132.178 39.236 131.698 38.468C131.266 37.7 131.05 36.86 131.05 35.948C131.05 34.796 131.41 33.86 132.13 33.14C132.898 32.42 134.026 32.06 135.514 32.06C137.098 32.06 138.25 32.66 138.97 33.86C139.69 35.012 140.05 36.5 140.05 38.324C140.05 42.644 139.306 47.276 137.818 52.22C136.33 57.116 134.05 61.292 130.978 64.748C127.906 68.204 124.09 69.932 119.53 69.932C117.178 69.932 115.258 69.428 113.77 68.42C112.282 67.412 111.322 65.9 110.89 63.884C108.202 67.916 104.794 69.932 100.666 69.932Z" fill="white"/>
<path d="M151.651 69.788C148.099 69.788 145.291 68.876 143.227 67.052C141.163 65.228 140.131 62.348 140.131 58.412C140.131 55.148 140.803 51.524 142.147 47.54C143.491 43.556 145.651 40.124 148.627 37.244C151.603 34.316 155.347 32.852 159.859 32.852C166.003 32.852 169.075 36.692 169.075 44.372V44.444C169.219 44.492 169.483 44.516 169.867 44.516C171.451 44.516 173.275 44.108 175.339 43.292C177.403 42.428 179.275 41.396 180.955 40.196L181.603 42.14C180.211 43.628 178.387 44.9 176.131 45.956C173.923 46.964 171.499 47.684 168.859 48.116C168.475 52.484 167.491 56.3 165.907 59.564C164.323 62.828 162.283 65.348 159.787 67.124C157.291 68.9 154.579 69.788 151.651 69.788ZM154.531 63.308C155.683 63.308 156.835 62.66 157.987 61.364C159.139 60.02 160.147 58.22 161.011 55.964C161.875 53.66 162.499 51.116 162.883 48.332C161.587 48.044 160.939 47.036 160.939 45.308C160.939 43.34 161.683 42.044 163.171 41.42C163.075 39.836 162.835 38.756 162.451 38.18C162.067 37.556 161.395 37.244 160.435 37.244C158.851 37.244 157.315 38.396 155.827 40.7C154.339 43.004 153.139 45.764 152.227 48.98C151.315 52.196 150.859 55.028 150.859 57.476C150.859 59.78 151.123 61.34 151.651 62.156C152.179 62.924 153.139 63.308 154.531 63.308Z" fill="white"/>
<path d="M177.676 33.5H188.044L187.108 37.964C188.74 36.524 190.204 35.42 191.5 34.652C192.844 33.884 194.284 33.5 195.82 33.5C197.356 33.5 198.556 34.028 199.42 35.084C200.332 36.14 200.788 37.412 200.788 38.9C200.788 40.292 200.332 41.516 199.42 42.572C198.508 43.628 197.236 44.156 195.604 44.156C194.548 44.156 193.828 43.916 193.444 43.436C193.108 42.908 192.844 42.164 192.652 41.204C192.508 40.58 192.364 40.124 192.22 39.836C192.076 39.548 191.812 39.404 191.428 39.404C190.42 39.404 189.556 39.62 188.836 40.052C188.164 40.436 187.276 41.132 186.172 42.14L180.412 69.5H170.044L177.676 33.5Z" fill="white"/>
<path d="M242.402 69.932C239.858 69.932 238.01 69.164 236.858 67.628C235.706 66.092 235.13 64.148 235.13 61.796C235.13 60.788 235.25 59.66 235.49 58.412C235.73 57.116 235.97 55.868 236.21 54.668C236.498 53.468 236.69 52.7 236.786 52.364C237.17 50.684 237.53 49.028 237.866 47.396C238.202 45.764 238.37 44.444 238.37 43.436C238.37 40.988 237.506 39.764 235.778 39.764C234.53 39.764 233.426 40.388 232.466 41.636C231.506 42.836 230.738 44.42 230.162 46.388L225.266 69.5H214.898L220.154 44.66C220.298 44.084 220.37 43.484 220.37 42.86C220.37 40.748 219.65 39.692 218.21 39.692C216.866 39.692 215.69 40.316 214.682 41.564C213.722 42.764 212.954 44.372 212.378 46.388L207.482 69.5H197.114L204.746 33.5H215.114L214.322 37.244C216.77 34.508 219.698 33.14 223.106 33.14C227.33 33.14 229.802 35.204 230.522 39.332C233.162 35.252 236.498 33.212 240.53 33.212C242.978 33.212 244.922 33.884 246.362 35.228C247.802 36.572 248.522 38.612 248.522 41.348C248.522 42.74 248.354 44.3 248.018 46.028C247.682 47.708 247.202 49.772 246.578 52.22C246.194 53.708 245.834 55.172 245.498 56.612C245.21 58.004 245.066 59.108 245.066 59.924C245.066 60.884 245.282 61.628 245.714 62.156C246.146 62.684 246.89 62.948 247.946 62.948C249.098 62.948 249.89 62.804 250.322 62.516C250.034 64.964 249.146 66.812 247.658 68.06C246.218 69.308 244.466 69.932 242.402 69.932Z" fill="white"/>
<path fill-rule="evenodd" clip-rule="evenodd" d="M258.169 1.7906C258.911 2.54189 258.24 4.40606 256.674 5.95017C255.108 7.49427 253.235 8.13776 252.494 7.38579C251.753 6.6345 252.423 4.771 253.99 3.22689C255.556 1.68279 257.429 1.03931 258.169 1.7906Z" fill="white"/>
<path fill-rule="evenodd" clip-rule="evenodd" d="M259.478 4.3211C259.81 3.99367 259.814 3.45799 259.486 3.12586L258.298 1.92125C257.971 1.58913 257.435 1.58511 257.102 1.91255L252.632 6.32053C252.299 6.64864 252.295 7.18432 252.623 7.51644L253.811 8.72106C254.138 9.05318 254.674 9.0572 255.007 8.72909L259.478 4.3211Z" fill="white"/>
<path fill-rule="evenodd" clip-rule="evenodd" d="M267.871 11.6393C267.131 10.8874 265.258 11.5309 263.692 13.075C262.126 14.6191 261.455 16.4832 262.197 17.2345C262.937 17.9858 264.81 17.3423 266.376 15.7982C267.942 14.2541 268.613 12.3906 267.871 11.6393Z" fill="white"/>
<path fill-rule="evenodd" clip-rule="evenodd" d="M265.361 10.2952C265.694 9.96709 266.23 9.97111 266.557 10.3032L267.744 11.5078C268.072 11.84 268.068 12.3756 267.736 12.7038L263.265 17.1117C262.932 17.4392 262.397 17.4352 262.069 17.103L260.881 15.8984C260.554 15.5663 260.558 15.0306 260.89 14.7032L265.361 10.2952Z" fill="white"/>
<path fill-rule="evenodd" clip-rule="evenodd" d="M264.487 12.602C264.499 12.5906 264.517 12.5906 264.529 12.602L265.414 13.5006C265.426 13.5126 265.426 13.5307 265.414 13.5428L265.372 13.5843C265.361 13.5957 265.342 13.595 265.331 13.5836L264.445 12.685C264.433 12.6736 264.433 12.6549 264.445 12.6435L264.487 12.602Z" fill="white"/>
<path fill-rule="evenodd" clip-rule="evenodd" d="M267.5 2.61207C268.666 3.82673 269.519 5.40029 269.369 7.05488C269.183 9.09984 267.776 10.7377 266.452 12.1331C266.452 12.1331 266.071 12.4438 265.689 12.3146C265.024 12.0889 264.633 12.0233 266.23 10.1156C267.2 8.95722 268.102 7.59391 267.861 6.09467C267.698 5.07955 267.041 4.20907 266.313 3.48992C265.374 2.56185 264.09 1.83667 262.754 2.02081C261.238 2.22973 259.975 3.3185 258.933 4.47892C258.933 4.47892 258.354 4.8847 257.927 4.5499C256.57 3.48724 260.537 0.476038 263.209 0.500144C264.808 0.514206 266.341 1.43089 267.5 2.61207Z" fill="white"/>
<path fill-rule="evenodd" clip-rule="evenodd" d="M265.28 9.54624C262.486 13.2305 256.154 16.1395 251.533 20.2889C250.841 20.91 250.069 20.8286 250.355 21.8394C250.565 22.5787 251.033 22.5787 251.368 22.7233C251.651 22.8449 251.934 22.9677 252.216 23.0899C252.765 23.3289 253.313 23.5692 253.861 23.8116C259.312 26.2318 264.947 28.5196 269.39 32.5312C272.2 35.0681 273.943 39.4347 271.801 43.1509C271.153 44.2758 270.294 45.2561 269.363 46.1482C260.12 55.8652 254.664 62.5806 246.186 68.75C246.186 68.75 241.634 53 244.345 56.75C247.055 60.5 265.115 41.8074 265.115 41.8074C266.315 40.673 267.722 39.5488 265.963 37.6642C262.425 33.874 257.308 32.0437 252.6 29.9256C251.091 29.2467 249.574 28.5875 248.053 27.9365C247.429 27.612 247.357 27.5563 247.055 27.3486C245.195 26.0702 244.038 23.8238 244.345 21.4633C244.936 16.9175 249.025 13.9651 252.435 11.6134C256.673 8.69221 258.067 4.49265 260.735 4.21159C264.969 3.76488 266.693 7.68339 265.28 9.54624Z" fill="white"/>
<path d="M259.498 8.41917C259.791 8.41917 260.029 8.18172 260.029 7.88882C260.029 7.59592 259.791 7.35847 259.498 7.35847C259.205 7.35847 258.968 7.59592 258.968 7.88882C258.968 8.18172 259.205 8.41917 259.498 8.41917Z" fill="black"/>
<path d="M261.62 10.5406C261.913 10.5406 262.15 10.3031 262.15 10.0102C262.15 9.7173 261.913 9.47986 261.62 9.47986C261.327 9.47986 261.089 9.7173 261.089 10.0102C261.089 10.3031 261.327 10.5406 261.62 10.5406Z" fill="black"/>
<path fill-rule="evenodd" clip-rule="evenodd" d="M257.311 9.48002C257.912 9.53307 257.073 10.8352 257.802 11.602C258.379 12.2108 259.58 11.8389 259.886 12.0511C260.114 12.2096 260.096 12.5345 259.629 12.6238C258.453 12.8209 256.995 12.2572 256.866 10.8689C256.808 10.2589 256.858 9.46676 257.311 9.48002Z" fill="black"/>
<path fill-rule="evenodd" clip-rule="evenodd" d="M257.796 12.05C257.796 12.05 256.998 13.5888 257.778 13.5493C258.458 13.5149 258.936 12.1147 258.936 12.1147L257.796 12.05Z" fill="black"/>
</svg>
